<?xml version="1.0" encoding="UTF-8"?>
<!DOCTYPE svg PUBLIC "-//W3C//DTD SVG 1.1//EN" "http://www.w3.org/Graphics/SVG/1.1/DTD/svg11.dtd">
<svg xmlns="http://www.w3.org/2000/svg" version="1.1" width="309px" height="264px" style="shape-rendering:geometricPrecision; text-rendering:geometricPrecision; image-rendering:optimizeQuality; fill-rule:evenodd; clip-rule:evenodd" xmlns:xlink="http://www.w3.org/1999/xlink">
<g><path style="opacity:1" fill="#f9faf9" d="M 85.5,8.5 C 86.8333,9.16667 86.8333,9.16667 85.5,8.5 Z"/></g>
<g><path style="opacity:1" fill="#f9faf9" d="M 93.5,8.5 C 94.8333,9.16667 94.8333,9.16667 93.5,8.5 Z"/></g>
<g><path style="opacity:1" fill="#f9faf9" d="M 194.5,8.5 C 195.833,9.16667 195.833,9.16667 194.5,8.5 Z"/></g>
<g><path style="opacity:1" fill="#f9faf9" d="M 196.5,8.5 C 197.833,9.16667 197.833,9.16667 196.5,8.5 Z"/></g>
<g><path style="opacity:1" fill="#f9faf9" d="M 209.5,8.5 C 210.833,9.16667 210.833,9.16667 209.5,8.5 Z"/></g>
<g><path style="opacity:1" fill="#f9faf9" d="M 233.5,8.5 C 234.833,9.16667 234.833,9.16667 233.5,8.5 Z"/></g>
<g><path style="opacity:1" fill="#f9faf9" d="M 76.5,9.5 C 77.8333,10.1667 77.8333,10.1667 76.5,9.5 Z"/></g>
<g><path style="opacity:1" fill="#f9faf9" d="M 203.5,9.5 C 204.833,10.1667 204.833,10.1667 203.5,9.5 Z"/></g>
<g><path style="opacity:1" fill="#f9faf9" d="M 250.5,9.5 C 251.833,10.1667 251.833,10.1667 250.5,9.5 Z"/></g>
<g><path style="opacity:1" fill="#f9faf9" d="M 79.5,10.5 C 80.8333,11.1667 80.8333,11.1667 79.5,10.5 Z"/></g>
<g><path style="opacity:1" fill="#f9faf9" d="M 223.5,10.5 C 224.833,11.1667 224.833,11.1667 223.5,10.5 Z"/></g>
<g><path style="opacity:1" fill="#f9faf9" d="M 13.5,11.5 C 14.8333,12.1667 14.8333,12.1667 13.5,11.5 Z"/></g>
<g><path style="opacity:1" fill="#f9faf9" d="M 17.5,11.5 C 18.8333,12.1667 18.8333,12.1667 17.5,11.5 Z"/></g>
<g><path style="opacity:1" fill="#f9faf9" d="M 21.5,11.5 C 22.525,11.8966 22.6917,12.5632 22,13.5C 21.5357,12.9056 21.369,12.2389 21.5,11.5 Z"/></g>
<g><path style="opacity:1" fill="#f9faf9" d="M 55.5,11.5 C 56.8333,12.1667 56.8333,12.1667 55.5,11.5 Z"/></g>
<g><path style="opacity:1" fill="#f9faf9" d="M 86.5,12.5 C 86.8966,11.475 87.5632,11.3083 88.5,12C 87.9056,12.4643 87.2389,12.631 86.5,12.5 Z"/></g>
<g><path style="opacity:1" fill="#f9faf9" d="M 104.5,11.5 C 105.833,12.1667 105.833,12.1667 104.5,11.5 Z"/></g>
<g><path style="opacity:1" fill="#f9faf9" d="M 212.5,11.5 C 213.833,12.1667 213.833,12.1667 212.5,11.5 Z"/></g>
<g><path style="opacity:1" fill="#f9faf9" d="M 218.5,11.5 C 219.833,12.1667 219.833,12.1667 218.5,11.5 Z"/></g>
<g><path style="opacity:1" fill="#f9faf9" d="M 245.5,11.5 C 246.833,12.1667 246.833,12.1667 245.5,11.5 Z"/></g>
<g><path style="opacity:1" fill="#f9faf9" d="M 101.5,12.5 C 102.833,13.1667 102.833,13.1667 101.5,12.5 Z"/></g>
<g><path style="opacity:1" fill="#f9faf9" d="M 126.5,12.5 C 127.833,13.1667 127.833,13.1667 126.5,12.5 Z"/></g>
<g><path style="opacity:1" fill="#f9faf9" d="M 134.5,12.5 C 135.525,12.8966 135.692,13.5632 135,14.5C 134.536,13.9056 134.369,13.2389 134.5,12.5 Z"/></g>
<g><path style="opacity:1" fill="#f9faf9" d="M 139.5,12.5 C 140.833,13.1667 140.833,13.1667 139.5,12.5 Z"/></g>
<g><path style="opacity:1" fill="#f9faf9" d="M 198.5,12.5 C 199.833,13.1667 199.833,13.1667 198.5,12.5 Z"/></g>
<g><path style="opacity:1" fill="#f9faf9" d="M 224.5,12.5 C 225.833,13.1667 225.833,13.1667 224.5,12.5 Z"/></g>
<g><path style="opacity:1" fill="#f9faf9" d="M 251.5,12.5 C 252.833,13.1667 252.833,13.1667 251.5,12.5 Z"/></g>
<g><path style="opacity:1" fill="#f9faf9" d="M 93.5,13.5 C 94.8333,14.1667 94.8333,14.1667 93.5,13.5 Z"/></g>
<g><path style="opacity:1" fill="#f9faf9" d="M 117.5,13.5 C 118.833,14.1667 118.833,14.1667 117.5,13.5 Z"/></g>
<g><path style="opacity:1" fill="#f9faf9" d="M 189.5,13.5 C 190.833,14.1667 190.833,14.1667 189.5,13.5 Z"/></g>
<g><path style="opacity:1" fill="#f9faf9" d="M 205.5,13.5 C 206.833,14.1667 206.833,14.1667 205.5,13.5 Z"/></g>
<g><path style="opacity:1" fill="#f9faf9" d="M 245.5,13.5 C 246.833,14.1667 246.833,14.1667 245.5,13.5 Z"/></g>
<g><path style="opacity:1" fill="#f9faf9" d="M 205.5,14.5 C 204.833,15.1667 204.833,15.1667 205.5,14.5 Z"/></g>
<g><path style="opacity:1" fill="#f9faf9" d="M 14.5,15.5 C 15.8333,16.1667 15.8333,16.1667 14.5,15.5 Z"/></g>
<g><path style="opacity:1" fill="#ead4be" d="M 81.5,16.5 C 77.6707,15.931 74.3373,16.5977 71.5,18.5C 70.7326,17.828 70.0659,16.9947 69.5,16C 73.6888,15.1881 77.6888,15.3547 81.5,16.5 Z"/></g>
<g><path style="opacity:1" fill="#e8ceb4" d="M 202.5,17.5 C 169.833,16.1667 137.167,16.1667 104.5,17.5C 104.167,17.5 103.833,17.5 103.5,17.5C 108.655,15.8224 114.155,14.8224 120,14.5C 147.618,15.0371 175.451,15.7038 203.5,16.5C 203.376,17.1067 203.043,17.44 202.5,17.5 Z"/></g>
<g><path style="opacity:1" fill="#b07246" d="M 60.5,38.5 C 59.9852,53.2528 57.6519,67.5861 53.5,81.5C 52.3882,83.5994 51.7215,85.9327 51.5,88.5C 50.7387,92.7843 49.4053,96.7843 47.5,100.5C 46.234,101.09 44.9007,101.59 43.5,102C 44.3081,102.308 44.9747,102.808 45.5,103.5C 43.8267,105.523 43.1601,107.856 43.5,110.5C 40.1798,119.147 35.8465,127.147 30.5,134.5C 29.8501,134.196 29.1835,133.863 28.5,133.5C 27.5481,135.045 27.2148,136.712 27.5,138.5C 23.1195,138.609 21.7862,140.609 23.5,144.5C 23.1667,145.5 22.5,146.167 21.5,146.5C 20.8826,146.611 20.3826,146.944 20,147.5C 19.5,103.835 19.3333,60.1679 19.5,16.5C 33.1667,16.5 46.8333,16.5 60.5,16.5C 60.5,23.8333 60.5,31.1667 60.5,38.5 Z"/></g>
<g><path style="opacity:1" fill="#b17348" d="M 202.5,17.5 C 196.201,21.9885 189.534,25.9885 182.5,29.5C 182.5,28.8333 182.167,28.5 181.5,28.5C 179.738,28.6427 178.071,28.3094 176.5,27.5C 175.146,28.8543 173.812,30.1877 172.5,31.5C 170.621,32.3414 168.621,32.6747 166.5,32.5C 157.833,32.5 149.167,32.5 140.5,32.5C 138.379,32.6747 136.379,32.3414 134.5,31.5C 131.101,28.8033 127.101,27.4699 122.5,27.5C 115.847,25.1774 109.847,21.8441 104.5,17.5C 137.167,16.1667 169.833,16.1667 202.5,17.5 Z"/></g>
<g><path style="opacity:1" fill="#b07144" d="M 286.5,147.5 C 282.458,143.46 278.791,139.127 275.5,134.5C 274.331,131.489 272.664,128.822 270.5,126.5C 260.642,107.925 253.975,88.2583 250.5,67.5C 250.768,65.901 250.434,64.5676 249.5,63.5C 249.5,63.1667 249.5,62.8333 249.5,62.5C 249.17,57.1501 249.836,52.3167 251.5,48C 250.99,46.1739 250.156,46.0072 249,47.5C 248.667,45.1667 248.333,42.8333 248,40.5C 247.617,39.944 247.117,39.6107 246.5,39.5C 246.5,38.5 246.5,37.5 246.5,36.5C 246.5,29.8333 246.5,23.1667 246.5,16.5C 260.167,16.5 273.833,16.5 287.5,16.5C 287.832,60.3365 287.499,104.003 286.5,147.5 Z"/></g>
<g><path style="opacity:1" fill="#f9faf9" d="M 84.5,17.5 C 85.8333,18.1667 85.8333,18.1667 84.5,17.5 Z"/></g>
<g><path style="opacity:1" fill="#bc875f" d="M 113.5,27.5 C 110.092,28.172 107.425,27.172 105.5,24.5C 104.289,25.2739 104.289,26.1072 105.5,27C 104.234,27.3095 103.067,27.8095 102,28.5C 100.881,27.4479 100.381,26.2812 100.5,25C 101.167,24.6667 101.833,24.3333 102.5,24C 100.559,23.6964 98.8928,22.8631 97.5,21.5C 97.1667,22.1667 96.8333,22.8333 96.5,23.5C 97.5272,25.184 98.5272,26.8506 99.5,28.5C 94.5806,25.2517 90.2472,21.2517 86.5,16.5C 90.122,15.3414 93.7887,15.1747 97.5,16C 102.799,20.73 108.133,24.5633 113.5,27.5 Z"/></g>
<g><path style="opacity:1" fill="#f9faf9" d="M 103.5,17.5 C 102.833,18.1667 102.833,18.1667 103.5,17.5 Z"/></g>
<g><path style="opacity:1" fill="#f9faf9" d="M 243.5,18.5 C 244.833,19.1667 244.833,19.1667 243.5,18.5 Z"/></g>
<g><path style="opacity:1" fill="#f9faf9" d="M 199.5,23.5 C 198.833,22.1667 198.833,22.1667 199.5,23.5 Z"/></g>
<g><path style="opacity:1" fill="#efe5d5" d="M 66.5,18.5 C 65.8333,24.8333 65.1667,31.1667 64.5,37.5C 64.1697,30.4684 64.503,23.4684 65.5,16.5C 66.2975,16.9569 66.6309,17.6236 66.5,18.5 Z"/></g>
<g><path style="opacity:1" fill="#f9faf9" d="M 74.5,23.5 C 73.8333,24.1667 73.8333,24.1667 74.5,23.5 Z"/></g>
<g><path style="opacity:1" fill="#f0e3d4" d="M 242.5,35.5 C 241.833,29.8333 241.167,24.1667 240.5,18.5C 240.369,17.6236 240.702,16.9569 241.5,16.5C 242.496,22.7985 242.83,29.1318 242.5,35.5 Z"/></g>
<g><path style="opacity:1" fill="#f9faf9" d="M 289.5,23.5 C 290.833,24.1667 290.833,24.1667 289.5,23.5 Z"/></g>
<g><path style="opacity:1" fill="#f9faf9" d="M 75.5,25.5 C 74.8333,26.1667 74.8333,26.1667 75.5,25.5 Z"/></g>
<g><path style="opacity:1" fill="#f9faf9" d="M 114.5,25.5 C 115.833,26.1667 115.833,26.1667 114.5,25.5 Z"/></g>
<g><path style="opacity:1" fill="#b17447" d="M 113.5,27.5 C 114.412,28.7382 114.579,30.0715 114,31.5C 113.667,31.1667 113.333,30.8333 113,30.5C 112.451,32.7596 111.284,34.4262 109.5,35.5C 105.608,33.9379 102.275,31.6046 99.5,28.5C 98.5272,26.8506 97.5272,25.184 96.5,23.5C 96.8333,22.8333 97.1667,22.1667 97.5,21.5C 98.8928,22.8631 100.559,23.6964 102.5,24C 101.833,24.3333 101.167,24.6667 100.5,25C 100.381,26.2812 100.881,27.4479 102,28.5C 103.067,27.8095 104.234,27.3095 105.5,27C 104.289,26.1072 104.289,25.2739 105.5,24.5C 107.425,27.172 110.092,28.172 113.5,27.5 Z"/></g>
<g><path style="opacity:1" fill="#b2764a" d="M 240.5,18.5 C 241.167,24.1667 241.833,29.8333 242.5,35.5C 243.383,40.1031 243.717,44.7697 243.5,49.5C 243.335,53.1817 243.501,56.8484 244,60.5C 244.232,61.7375 244.732,62.7375 245.5,63.5C 245.425,67.8967 245.925,72.23 247,76.5C 247.383,77.056 247.883,77.3893 248.5,77.5C 249.451,78.9187 249.784,80.5853 249.5,82.5C 249.263,83.791 249.596,84.791 250.5,85.5C 250.171,88.2282 250.837,90.5615 252.5,92.5C 252.833,92.5 253.167,92.5 253.5,92.5C 253.263,93.791 253.596,94.791 254.5,95.5C 257.036,104.477 260.036,112.81 263.5,120.5C 263.932,121.71 264.599,122.71 265.5,123.5C 267.008,125.181 268.008,127.181 268.5,129.5C 268.523,131.927 269.023,134.26 270,136.5C 271.131,135.396 271.965,135.729 272.5,137.5C 270.905,138.434 269.239,138.434 267.5,137.5C 264.907,136.246 262.573,134.58 260.5,132.5C 260.167,131.5 259.5,130.833 258.5,130.5C 251.357,123.504 244.69,116.171 238.5,108.5C 235.771,104.046 233.271,99.3796 231,94.5C 224.54,83.3256 220.04,70.9923 217.5,57.5C 217.784,55.5853 217.451,53.9187 216.5,52.5C 216.107,49.4867 216.774,46.8201 218.5,44.5C 223.229,39.7757 227.563,34.7757 231.5,29.5C 234.886,26.1174 237.886,22.4508 240.5,18.5 Z"/></g>
<g><path style="opacity:1" fill="#f9faf9" d="M 231.5,29.5 C 230.833,28.1667 230.833,28.1667 231.5,29.5 Z"/></g>
<g><path style="opacity:1" fill="#f9faf9" d="M 207.5,29.5 C 208.833,30.1667 208.833,30.1667 207.5,29.5 Z"/></g>
<g><path style="opacity:1" fill="#b2754a" d="M 66.5,18.5 C 72.7761,27.3488 79.7761,35.6822 87.5,43.5C 87.7496,44.9221 88.583,45.9221 90,46.5C 90.4966,48.8098 90.6633,51.1432 90.5,53.5C 89.5489,54.9187 89.2155,56.5853 89.5,58.5C 88.3882,60.5994 87.7215,62.9327 87.5,65.5C 87.5674,66.9587 87.2341,68.2921 86.5,69.5C 85.596,70.209 85.2627,71.209 85.5,72.5C 84.9913,75.1922 83.9913,77.6922 82.5,80C 82.8333,80.3333 83.1667,80.6667 83.5,81C 81.4436,83.6141 79.7769,86.4475 78.5,89.5C 77.5188,91.3092 76.0188,92.6426 74,93.5C 73.6667,93.1667 73.3333,92.8333 73,92.5C 71.7054,95.0051 71.5388,97.6717 72.5,100.5C 68.681,108.117 63.8477,115.117 58,121.5C 53.2613,126.744 48.0946,131.41 42.5,135.5C 42.2648,134.903 41.7648,134.57 41,134.5C 39.9895,134.892 39.4895,135.559 39.5,136.5C 38.5,136 37.5,135.5 36.5,135C 37.9913,132.692 38.9913,130.192 39.5,127.5C 42.0396,123.085 44.0396,118.418 45.5,113.5C 47.3561,110.591 49.0227,107.591 50.5,104.5C 53.1963,101.079 54.5297,97.0785 54.5,92.5C 55.3359,88.6775 56.3359,85.0108 57.5,81.5C 59.1628,79.5615 59.8294,77.2282 59.5,74.5C 59.3928,70.3813 60.0595,66.3813 61.5,62.5C 63.2499,58.8171 63.9166,54.8171 63.5,50.5C 63.2307,46.0685 63.564,41.7352 64.5,37.5C 65.1667,31.1667 65.8333,24.8333 66.5,18.5 Z"/></g>
<g><path style="opacity:1" fill="#f9faf9" d="M 101.5,32.5 C 102.833,33.1667 102.833,33.1667 101.5,32.5 Z"/></g>
<g><path style="opacity:1" fill="#b67d54" d="M 207.5,29.5 C 181.425,49.1323 153.425,53.799 123.5,43.5C 118.54,41.353 113.873,38.6864 109.5,35.5C 111.284,34.4262 112.451,32.7596 113,30.5C 113.333,30.8333 113.667,31.1667 114,31.5C 114.579,30.0715 114.412,28.7382 113.5,27.5C 114.833,27.8333 116.167,28.1667 117.5,28.5C 120.957,30.3913 124.624,32.058 128.5,33.5C 129.086,33.2907 129.586,32.9574 130,32.5C 130.278,33.4158 130.778,34.0825 131.5,34.5C 132.209,35.404 133.209,35.7373 134.5,35.5C 136.415,35.2155 138.081,35.5489 139.5,36.5C 145.776,38.4405 152.109,38.7738 158.5,37.5C 173.452,36.3519 187.119,31.6853 199.5,23.5C 203.34,21.7392 206.673,19.2392 209.5,16C 213.211,15.1747 216.878,15.3414 220.5,16.5C 216.452,21.2148 212.119,25.5481 207.5,29.5 Z"/></g>
<g><path style="opacity:1" fill="#f9faf9" d="M 161.5,34.5 C 162.833,35.1667 162.833,35.1667 161.5,34.5 Z"/></g>
<g><path style="opacity:1" fill="#f7f0e8" d="M 134.5,35.5 C 133.209,35.7373 132.209,35.404 131.5,34.5C 131.435,34.0618 131.601,33.7284 132,33.5C 132.995,34.0659 133.828,34.7326 134.5,35.5 Z"/></g>
<g><path style="opacity:1" fill="#cdb5a1" d="M 140.5,32.5 C 149.167,32.5 157.833,32.5 166.5,32.5C 157.604,35.111 148.938,35.111 140.5,32.5 Z"/></g>
<g><path style="opacity:1" fill="#f9faf9" d="M 181.5,29.5 C 181.833,29.5 182.167,29.5 182.5,29.5C 182.315,30.1701 181.981,30.1701 181.5,29.5 Z"/></g>
<g><path style="opacity:1" fill="#cdac91" d="M 122.5,27.5 C 127.101,27.4699 131.101,28.8033 134.5,31.5C 130.312,31.4862 126.312,30.1528 122.5,27.5 Z"/></g>
<g><path style="opacity:1" fill="#cfac90" d="M 181.5,28.5 C 181.5,28.8333 181.5,29.1667 181.5,29.5C 180.25,29.5774 179.417,30.244 179,31.5C 177.125,30.3769 174.958,30.3769 172.5,31.5C 173.812,30.1877 175.146,28.8543 176.5,27.5C 178.071,28.3094 179.738,28.6427 181.5,28.5 Z"/></g>
<g><path style="opacity:1" fill="#f9faf9" d="M 117.5,27.5 C 118.833,28.1667 118.833,28.1667 117.5,27.5 Z"/></g>
<g><path style="opacity:1" fill="#f9faf9" d="M 62.5,36.5 C 63.8333,37.1667 63.8333,37.1667 62.5,36.5 Z"/></g>
<g><path style="opacity:1" fill="#ceb7a0" d="M 139.5,36.5 C 145.822,37.014 152.155,37.3473 158.5,37.5C 152.109,38.7738 145.776,38.4405 139.5,36.5 Z"/></g>
<g><path style="opacity:1" fill="#e2c8ae" d="M 286.5,147.5 C 287.499,104.003 287.832,60.3365 287.5,16.5C 273.833,16.5 260.167,16.5 246.5,16.5C 246.5,23.1667 246.5,29.8333 246.5,36.5C 245.509,29.6866 245.175,22.6866 245.5,15.5C 259.833,15.5 274.167,15.5 288.5,15.5C 288.667,60.1679 288.5,104.835 288,149.5C 287.667,149.833 287.333,150.167 287,150.5C 286.517,149.552 286.351,148.552 286.5,147.5 Z"/></g>
<g><path style="opacity:1" fill="#f9faf9" d="M 110.5,38.5 C 111.833,39.1667 111.833,39.1667 110.5,38.5 Z"/></g>
<g><path style="opacity:1" fill="#b67f56" d="M 209.5,46.5 C 205.061,49.6152 200.394,52.2818 195.5,54.5C 196.791,53.5272 196.791,52.5272 195.5,51.5C 196.833,51.1667 198.167,50.8333 199.5,50.5C 198.624,49.7492 197.624,49.2492 196.5,49C 197.696,48.3457 197.696,47.8457 196.5,47.5C 193.532,49.3741 190.532,49.0408 187.5,46.5C 184.979,47.7853 182.313,48.4519 179.5,48.5C 197.755,41.8663 213.089,31.033 225.5,16C 229.152,15.5014 232.818,15.3347 236.5,15.5C 230.054,27.9535 221.054,38.2868 209.5,46.5 Z"/></g>
<g><path style="opacity:1" fill="#f9faf9" d="M 116.5,41.5 C 117.833,42.1667 117.833,42.1667 116.5,41.5 Z"/></g>
<g><path style="opacity:1" fill="#f9faf9" d="M 123.5,43.5 C 122.833,44.1667 122.833,44.1667 123.5,43.5 Z"/></g>
<g><path style="opacity:1" fill="#d7bda7" d="M 87.5,43.5 C 90.6352,44.4724 92.3019,46.6391 92.5,50C 91.9152,51.3024 91.2485,52.469 90.5,53.5C 90.6633,51.1432 90.4966,48.8098 90,46.5C 88.583,45.9221 87.7496,44.9221 87.5,43.5 Z"/></g>
<g><path style="opacity:1" fill="#b67c52" d="M 81.5,16.5 C 82.5,17.1667 83.5,17.8333 84.5,18.5C 97.1726,33.8028 112.839,43.9695 131.5,49C 135.114,49.9358 138.78,50.4358 142.5,50.5C 149.982,51.492 157.648,51.8254 165.5,51.5C 170.312,52.0355 174.645,51.0355 178.5,48.5C 178.833,48.5 179.167,48.5 179.5,48.5C 182.313,48.4519 184.979,47.7853 187.5,46.5C 190.532,49.0408 193.532,49.3741 196.5,47.5C 197.696,47.8457 197.696,48.3457 196.5,49C 197.624,49.2492 198.624,49.7492 199.5,50.5C 198.167,50.8333 196.833,51.1667 195.5,51.5C 196.791,52.5272 196.791,53.5272 195.5,54.5C 192.912,56.5918 189.912,57.9251 186.5,58.5C 185.209,58.2627 184.209,58.596 183.5,59.5C 168.947,64.9878 153.947,66.3211 138.5,63.5C 136.162,61.9605 133.495,61.2938 130.5,61.5C 115.461,57.9535 102.128,51.1201 90.5,41C 84.946,36.2537 79.946,31.0871 75.5,25.5C 75.6716,24.5084 75.3382,23.8417 74.5,23.5C 73.2485,21.9991 72.2485,20.3325 71.5,18.5C 74.3373,16.5977 77.6707,15.931 81.5,16.5 Z"/></g>
<g><path style="opacity:1" fill="#f9faf9" d="M 93.5,46.5 C 94.8333,47.1667 94.8333,47.1667 93.5,46.5 Z"/></g>
<g><path style="opacity:1" fill="#f9faf9" d="M 129.5,46.5 C 130.833,47.1667 130.833,47.1667 129.5,46.5 Z"/></g>
<g><path style="opacity:1" fill="#f9faf9" d="M 209.5,46.5 C 210.833,47.1667 210.833,47.1667 209.5,46.5 Z"/></g>
<g><path style="opacity:1" fill="#c09270" d="M 246.5,39.5 C 247.117,39.6107 247.617,39.944 248,40.5C 248.333,42.8333 248.667,45.1667 249,47.5C 250.156,46.0072 250.99,46.1739 251.5,48C 249.836,52.3167 249.17,57.1501 249.5,62.5C 247.778,55.063 246.778,47.3964 246.5,39.5 Z"/></g>
<g><path style="opacity:1" fill="#f9faf9" d="M 142.5,49.5 C 143.833,50.1667 143.833,50.1667 142.5,49.5 Z"/></g>
<g><path style="opacity:1" fill="#f9faf9" d="M 159.5,50.5 C 159.897,49.475 160.563,49.3083 161.5,50C 160.906,50.4643 160.239,50.631 159.5,50.5 Z"/></g>
<g><path style="opacity:1" fill="#f6f0e8" d="M 210.5,50.5 C 211.601,49.4017 212.934,49.235 214.5,50C 213.244,50.4169 212.577,51.2502 212.5,52.5C 211.833,51.8333 211.167,51.1667 210.5,50.5 Z"/></g>
<g><path style="opacity:1" fill="#e6d9c8" d="M 218.5,44.5 C 216.774,46.8201 216.107,49.4867 216.5,52.5C 215.371,50.3718 215.204,48.0385 216,45.5C 216.671,44.7476 217.504,44.4142 218.5,44.5 Z"/></g>
<g><path style="opacity:1" fill="#c7a689" d="M 178.5,48.5 C 174.645,51.0355 170.312,52.0355 165.5,51.5C 167.044,50.086 168.711,49.7526 170.5,50.5C 173.096,49.5178 175.762,48.8511 178.5,48.5 Z"/></g>
<g><path style="opacity:1" fill="#d4b59d" d="M 101.5,53.5 C 97.2791,51.7204 94.6124,53.0537 93.5,57.5C 93.3893,56.8826 93.056,56.3826 92.5,56C 94.1814,54.0545 94.848,52.0545 94.5,50C 97.3359,50.0846 99.6693,51.2513 101.5,53.5 Z"/></g>
<g><path style="opacity:1" fill="#f9faf9" d="M 104.5,53.5 C 105.833,54.1667 105.833,54.1667 104.5,53.5 Z"/></g>
<g><path style="opacity:1" fill="#f4efdd" d="M 101.5,53.5 C 102.609,53.5569 103.609,53.8902 104.5,54.5C 104.5,54.8333 104.5,55.1667 104.5,55.5C 102.973,55.573 101.973,54.9063 101.5,53.5 Z"/></g>
<g><path style="opacity:1" fill="#f9faf9" d="M 107.5,54.5 C 108.833,55.1667 108.833,55.1667 107.5,54.5 Z"/></g>
<g><path style="opacity:1" fill="#b2764c" d="M 210.5,50.5 C 211.167,51.1667 211.833,51.8333 212.5,52.5C 213.341,54.3792 213.675,56.3792 213.5,58.5C 213.263,59.791 213.596,60.791 214.5,61.5C 215.475,64.0667 216.142,66.7334 216.5,69.5C 216.595,71.7857 217.262,73.7857 218.5,75.5C 219.404,76.209 219.737,77.209 219.5,78.5C 219.796,80.403 220.463,82.0697 221.5,83.5C 222.687,85.0725 223.687,86.7392 224.5,88.5C 225.167,90.5 225.833,92.5 226.5,94.5C 226.427,96.0269 227.094,97.0269 228.5,97.5C 233.425,106.353 239.091,114.686 245.5,122.5C 246.08,124.749 247.413,126.415 249.5,127.5C 251.884,129.885 254.55,131.885 257.5,133.5C 260.219,137.785 263.719,140.452 268,141.5C 270.697,144.694 273.863,147.361 277.5,149.5C 276.432,150.434 275.099,150.768 273.5,150.5C 248.686,145.844 228.186,133.844 212,114.5C 205.994,107.28 201.16,99.7798 197.5,92C 193.11,84.3923 189.443,76.559 186.5,68.5C 186.653,66.6145 186.32,64.6145 185.5,62.5C 194.498,59.8341 202.831,55.8341 210.5,50.5 Z"/></g>
<g><path style="opacity:1" fill="#f9faf9" d="M 214.5,54.5 C 215.833,55.1667 215.833,55.1667 214.5,54.5 Z"/></g>
<g><path style="opacity:1" fill="#f0e8d7" d="M 216.5,52.5 C 217.451,53.9187 217.784,55.5853 217.5,57.5C 216.761,57.631 216.094,57.4643 215.5,57C 216.38,55.6439 216.714,54.1439 216.5,52.5 Z"/></g>
<g><path style="opacity:1" fill="#f3eddf" d="M 90.5,53.5 C 90.33,54.8221 90.6634,55.9887 91.5,57C 90.9558,57.7172 90.2891,58.2172 89.5,58.5C 89.2155,56.5853 89.5489,54.9187 90.5,53.5 Z"/></g>
<g><path style="opacity:1" fill="#b2764b" d="M 101.5,53.5 C 101.973,54.9063 102.973,55.573 104.5,55.5C 109.488,58.0422 114.488,60.3755 119.5,62.5C 119.5,64.5 119.5,66.5 119.5,68.5C 118.596,69.209 118.263,70.209 118.5,71.5C 117.463,72.9303 116.796,74.597 116.5,76.5C 114.349,84.4852 110.682,92.1519 105.5,99.5C 104.094,99.9731 103.427,100.973 103.5,102.5C 103.5,103.167 103.167,103.5 102.5,103.5C 101.599,104.29 100.932,105.29 100.5,106.5C 98.8067,109.184 97.14,111.851 95.5,114.5C 91.8333,117.833 88.1667,121.167 84.5,124.5C 82.8893,121.837 80.8893,121.337 78.5,123C 77.1667,125.333 75.8333,127.667 74.5,130C 73.5509,130.617 72.7175,130.451 72,129.5C 71.2496,130.126 70.4162,130.626 69.5,131C 69.8333,131.333 70.1667,131.667 70.5,132C 67.7894,135.692 64.1228,137.859 59.5,138.5C 58.5713,139.689 58.238,141.022 58.5,142.5C 50.7625,146.745 42.4292,149.411 33.5,150.5C 31.901,150.768 30.5676,150.434 29.5,149.5C 37.4285,144.568 44.7619,138.901 51.5,132.5C 65.5383,119.246 76.2049,104.246 83.5,87.5C 84.6737,86.4863 85.3404,85.153 85.5,83.5C 86.5,80.1667 87.5,76.8333 88.5,73.5C 89.1667,73.5 89.5,73.1667 89.5,72.5C 90.404,71.791 90.7373,70.791 90.5,69.5C 92.1628,67.5615 92.8294,65.2282 92.5,62.5C 92.366,60.7085 92.6993,59.0418 93.5,57.5C 94.6124,53.0537 97.2791,51.7204 101.5,53.5 Z"/></g>
<g><path style="opacity:1" fill="#f9faf9" d="M 59.5,57.5 C 60.8333,58.1667 60.8333,58.1667 59.5,57.5 Z"/></g>
<g><path style="opacity:1" fill="#d4bea6" d="M 63.5,50.5 C 63.9166,54.8171 63.2499,58.8171 61.5,62.5C 61.7167,58.2949 62.3833,54.2949 63.5,50.5 Z"/></g>
<g><path style="opacity:1" fill="#f0e5dc" d="M 183.5,59.5 C 184.209,58.596 185.209,58.2627 186.5,58.5C 185.895,60.4812 184.895,60.8146 183.5,59.5 Z"/></g>
<g><path style="opacity:1" fill="#f8f3e8" d="M 213.5,58.5 C 215.481,59.1054 215.815,60.1054 214.5,61.5C 213.596,60.791 213.263,59.791 213.5,58.5 Z"/></g>
<g><path style="opacity:1" fill="#cfb39b" d="M 243.5,49.5 C 245.097,53.9714 245.764,58.638 245.5,63.5C 244.732,62.7375 244.232,61.7375 244,60.5C 243.501,56.8484 243.335,53.1817 243.5,49.5 Z"/></g>
<g><path style="opacity:1" fill="#f7f1ea" d="M 89.5,58.5 C 89.8294,61.2282 89.1628,63.5615 87.5,65.5C 87.7215,62.9327 88.3882,60.5994 89.5,58.5 Z"/></g>
<g><path style="opacity:1" fill="#f9faf9" d="M 185.5,62.5 C 184.833,61.1667 184.833,61.1667 185.5,62.5 Z"/></g>
<g><path style="opacity:1" fill="#f9faf9" d="M 126.5,62.5 C 127.833,63.1667 127.833,63.1667 126.5,62.5 Z"/></g>
<g><path style="opacity:1" fill="#e1d2c2" d="M 130.5,61.5 C 133.495,61.2938 136.162,61.9605 138.5,63.5C 135.572,63.4349 132.905,62.7682 130.5,61.5 Z"/></g>
<g><path style="opacity:1" fill="#f9faf9" d="M 175.5,63.5 C 176.833,64.1667 176.833,64.1667 175.5,63.5 Z"/></g>
<g><path style="opacity:1" fill="#cfb5a2" d="M 119.5,62.5 C 120.376,62.3691 121.043,62.7025 121.5,63.5C 120.972,65.3361 120.306,67.0028 119.5,68.5C 119.5,66.5 119.5,64.5 119.5,62.5 Z"/></g>
<g><path style="opacity:1" fill="#f7f0e3" d="M 249.5,63.5 C 250.434,64.5676 250.768,65.901 250.5,67.5C 248.891,66.3346 248.557,65.0012 249.5,63.5 Z"/></g>
<g><path style="opacity:1" fill="#e5d6c9" d="M 92.5,62.5 C 92.8294,65.2282 92.1628,67.5615 90.5,69.5C 90.3893,68.8826 90.056,68.3826 89.5,68C 90.8688,66.2811 91.8688,64.4478 92.5,62.5 Z"/></g>
<g><path style="opacity:1" fill="#f9faf9" d="M 186.5,68.5 C 185.833,69.1667 185.833,69.1667 186.5,68.5 Z"/></g>
<g><path style="opacity:1" fill="#f8f3e9" d="M 86.5,69.5 C 87.8146,70.8946 87.4812,71.8946 85.5,72.5C 85.2627,71.209 85.596,70.209 86.5,69.5 Z"/></g>
<g><path style="opacity:1" fill="#f6efe6" d="M 90.5,69.5 C 90.7373,70.791 90.404,71.791 89.5,72.5C 88.1854,71.1054 88.5188,70.1054 90.5,69.5 Z"/></g>
<g><path style="opacity:1" fill="#f5f1eb" d="M 119.5,68.5 C 119.414,69.4959 119.748,70.3292 120.5,71C 119.906,71.4643 119.239,71.631 118.5,71.5C 118.263,70.209 118.596,69.209 119.5,68.5 Z"/></g>
<g><path style="opacity:1" fill="#f9faf9" d="M 57.5,71.5 C 58.8333,72.1667 58.8333,72.1667 57.5,71.5 Z"/></g>
<g><path style="opacity:1" fill="#f9faf9" d="M 123.5,71.5 C 124.833,72.1667 124.833,72.1667 123.5,71.5 Z"/></g>
<g><path style="opacity:1" fill="#f9faf9" d="M 185.5,71.5 C 186.833,72.1667 186.833,72.1667 185.5,71.5 Z"/></g>
<g><path style="opacity:1" fill="#f2ece3" d="M 216.5,69.5 C 218.074,71.1016 218.741,73.1016 218.5,75.5C 217.262,73.7857 216.595,71.7857 216.5,69.5 Z"/></g>
<g><path style="opacity:1" fill="#f9faf9" d="M 88.5,73.5 C 87.8333,72.1667 87.8333,72.1667 88.5,73.5 Z"/></g>
<g><path style="opacity:1" fill="#f6f1e9" d="M 118.5,71.5 C 118.88,73.698 118.213,75.3646 116.5,76.5C 116.796,74.597 117.463,72.9303 118.5,71.5 Z"/></g>
<g><path style="opacity:1" fill="#f9faf9" d="M 249.5,73.5 C 250.833,74.1667 250.833,74.1667 249.5,73.5 Z"/></g>
<g><path style="opacity:1" fill="#c6a58c" d="M 245.5,63.5 C 246.99,67.942 247.99,72.6086 248.5,77.5C 247.883,77.3893 247.383,77.056 247,76.5C 245.925,72.23 245.425,67.8967 245.5,63.5 Z"/></g>
<g><path style="opacity:1" fill="#f9faf9" d="M 120.5,76.5 C 121.833,77.1667 121.833,77.1667 120.5,76.5 Z"/></g>
<g><path style="opacity:1" fill="#d2b9a3" d="M 59.5,74.5 C 59.8294,77.2282 59.1628,79.5615 57.5,81.5C 57.7215,78.9327 58.3882,76.5994 59.5,74.5 Z"/></g>
<g><path style="opacity:1" fill="#f9faf9" d="M 122.5,78.5 C 123.833,79.1667 123.833,79.1667 122.5,78.5 Z"/></g>
<g><path style="opacity:1" fill="#f9faf9" d="M 182.5,78.5 C 183.833,79.1667 183.833,79.1667 182.5,78.5 Z"/></g>
<g><path style="opacity:1" fill="#f9faf9" d="M 221.5,78.5 C 222.833,79.1667 222.833,79.1667 221.5,78.5 Z"/></g>
<g><path style="opacity:1" fill="#f9faf9" d="M 182.5,79.5 C 181.833,80.1667 181.833,80.1667 182.5,79.5 Z"/></g>
<g><path style="opacity:1" fill="#f1e8de" d="M 219.5,78.5 C 220.167,78.8333 220.833,79.1667 221.5,79.5C 221.5,80.8333 221.5,82.1667 221.5,83.5C 220.463,82.0697 219.796,80.403 219.5,78.5 Z"/></g>
<g><path style="opacity:1" fill="#f9faf9" d="M 54.5,82.5 C 55.8333,83.1667 55.8333,83.1667 54.5,82.5 Z"/></g>
<g><path style="opacity:1" fill="#f9faf9" d="M 189.5,83.5 C 190.833,84.1667 190.833,84.1667 189.5,83.5 Z"/></g>
<g><path style="opacity:1" fill="#f5edde" d="M 249.5,82.5 C 250.239,82.369 250.906,82.5357 251.5,83C 250.748,83.6708 250.414,84.5041 250.5,85.5C 249.596,84.791 249.263,83.791 249.5,82.5 Z"/></g>
<g><path style="opacity:1" fill="#f4eee5" d="M 53.5,81.5 C 53.8294,84.2282 53.1628,86.5615 51.5,88.5C 51.7215,85.9327 52.3882,83.5994 53.5,81.5 Z"/></g>
<g><path style="opacity:1" fill="#faf4ee" d="M 85.5,83.5 C 85.3404,85.153 84.6737,86.4863 83.5,87.5C 82.5714,85.6783 83.2381,84.3449 85.5,83.5 Z"/></g>
<g><path style="opacity:1" fill="#f9faf9" d="M 116.5,84.5 C 117.833,85.1667 117.833,85.1667 116.5,84.5 Z"/></g>
<g><path style="opacity:1" fill="#f9faf9" d="M 53.5,87.5 C 54.8333,88.1667 54.8333,88.1667 53.5,87.5 Z"/></g>
<g><path style="opacity:1" fill="#f9faf9" d="M 191.5,87.5 C 192.833,88.1667 192.833,88.1667 191.5,87.5 Z"/></g>
<g><path style="opacity:1" fill="#f9faf9" d="M 224.5,87.5 C 225.833,88.1667 225.833,88.1667 224.5,87.5 Z"/></g>
<g><path style="opacity:1" fill="#f9faf9" d="M 79.5,89.5 C 80.8333,90.1667 80.8333,90.1667 79.5,89.5 Z"/></g>
<g><path style="opacity:1" fill="#e4d6c9" d="M 250.5,85.5 C 251.103,87.1897 252.103,88.6897 253.5,90C 252.748,90.6708 252.414,91.5041 252.5,92.5C 250.837,90.5615 250.171,88.2282 250.5,85.5 Z"/></g>
<g><path style="opacity:1" fill="#f9faf9" d="M 116.5,90.5 C 117.833,91.1667 117.833,91.1667 116.5,90.5 Z"/></g>
<g><path style="opacity:1" fill="#f9faf9" d="M 253.5,91.5 C 254.833,92.1667 254.833,92.1667 253.5,91.5 Z"/></g>
<g><path style="opacity:1" fill="#c49775" d="M 78.5,89.5 C 78.4142,90.4959 78.7476,91.3292 79.5,92C 78.0692,92.4652 76.9025,93.2986 76,94.5C 75.059,96.7274 73.8923,98.7274 72.5,100.5C 71.5388,97.6717 71.7054,95.0051 73,92.5C 73.3333,92.8333 73.6667,93.1667 74,93.5C 76.0188,92.6426 77.5188,91.3092 78.5,89.5 Z"/></g>
<g><path style="opacity:1" fill="#f9faf9" d="M 111.5,92.5 C 112.833,93.1667 112.833,93.1667 111.5,92.5 Z"/></g>
<g><path style="opacity:1" fill="#f9faf9" d="M 115.5,92.5 C 116.833,93.1667 116.833,93.1667 115.5,92.5 Z"/></g>
<g><path style="opacity:1" fill="#f9faf9" d="M 254.5,94.5 C 255.833,95.1667 255.833,95.1667 254.5,94.5 Z"/></g>
<g><path style="opacity:1" fill="#f9faf9" d="M 191.5,95.5 C 192.833,96.1667 192.833,96.1667 191.5,95.5 Z"/></g>
<g><path style="opacity:1" fill="#e5cfb6" d="M 60.5,38.5 C 60.5,31.1667 60.5,23.8333 60.5,16.5C 46.8333,16.5 33.1667,16.5 19.5,16.5C 19.3333,60.1679 19.5,103.835 20,147.5C 20.3826,146.944 20.8826,146.611 21.5,146.5C 21.5852,147.995 20.9185,148.995 19.5,149.5C 18.8147,143.279 18.1481,137.112 17.5,131C 18.8333,93.3333 18.8333,55.6667 17.5,18C 18.9119,16.2085 20.7452,15.0418 23,14.5C 35.4828,15.2811 48.3162,15.7811 61.5,16C 61.8333,16.3333 62.1667,16.6667 62.5,17C 61.8489,24.2655 61.1822,31.4322 60.5,38.5 Z"/></g>
<g><path style="opacity:1" fill="#efe5db" d="M 226.5,94.5 C 227.906,94.9731 228.573,95.9731 228.5,97.5C 227.094,97.0269 226.427,96.0269 226.5,94.5 Z"/></g>
<g><path style="opacity:1" fill="#f9faf9" d="M 199.5,99.5 C 200.833,100.167 200.833,100.167 199.5,99.5 Z"/></g>
<g><path style="opacity:1" fill="#f9faf9" d="M 256.5,99.5 C 257.833,100.167 257.833,100.167 256.5,99.5 Z"/></g>
<g><path style="opacity:1" fill="#f5f2ea" d="M 105.5,99.5 C 105.573,101.027 104.906,102.027 103.5,102.5C 103.427,100.973 104.094,99.9731 105.5,99.5 Z"/></g>
<g><path style="opacity:1" fill="#c7a68c" d="M 54.5,92.5 C 54.5297,97.0785 53.1963,101.079 50.5,104.5C 51.2613,100.216 52.5947,96.2157 54.5,92.5 Z"/></g>
<g><path style="opacity:1" fill="#f9faf9" d="M 108.5,102.5 C 109.833,103.167 109.833,103.167 108.5,102.5 Z"/></g>
<g><path style="opacity:1" fill="#f6f1ec" d="M 102.5,103.5 C 103.674,105.368 103.007,106.368 100.5,106.5C 100.932,105.29 101.599,104.29 102.5,103.5 Z"/></g>
<g><path style="opacity:1" fill="#c9a083" d="M 47.5,100.5 C 46.9292,103.477 45.9292,106.31 44.5,109C 45.7119,110.107 45.3786,110.607 43.5,110.5C 43.1601,107.856 43.8267,105.523 45.5,103.5C 44.9747,102.808 44.3081,102.308 43.5,102C 44.9007,101.59 46.234,101.09 47.5,100.5 Z"/></g>
<g><path style="opacity:1" fill="#f9faf9" d="M 238.5,108.5 C 237.833,109.167 237.833,109.167 238.5,108.5 Z"/></g>
<g><path style="opacity:1" fill="#f9faf9" d="M 68.5,109.5 C 69.8333,110.167 69.8333,110.167 68.5,109.5 Z"/></g>
<g><path style="opacity:1" fill="#f9faf9" d="M 45.5,113.5 C 44.8333,112.167 44.8333,112.167 45.5,113.5 Z"/></g>
<g><path style="opacity:1" fill="#f9faf9" d="M 99.5,113.5 C 100.833,114.167 100.833,114.167 99.5,113.5 Z"/></g>
<g><path style="opacity:1" fill="#f9faf9" d="M 208.5,113.5 C 209.833,114.167 209.833,114.167 208.5,113.5 Z"/></g>
<g><path style="opacity:1" fill="#f9faf9" d="M 262.5,113.5 C 263.833,114.167 263.833,114.167 262.5,113.5 Z"/></g>
<g><path style="opacity:1" fill="#f9faf9" d="M 95.5,114.5 C 96.8333,115.167 96.8333,115.167 95.5,114.5 Z"/></g>
<g><path style="opacity:1" fill="#f9faf9" d="M 205.5,115.5 C 206.833,116.167 206.833,116.167 205.5,115.5 Z"/></g>
<g><path style="opacity:1" fill="#f9faf9" d="M 264.5,117.5 C 265.833,118.167 265.833,118.167 264.5,117.5 Z"/></g>
<g><path style="opacity:1" fill="#f9faf9" d="M 93.5,118.5 C 94.8333,119.167 94.8333,119.167 93.5,118.5 Z"/></g>
<g><path style="opacity:1" fill="#f9faf9" d="M 210.5,119.5 C 211.833,120.167 211.833,120.167 210.5,119.5 Z"/></g>
<g><path style="opacity:1" fill="#f8f4ef" d="M 263.5,120.5 C 265.048,120.821 265.715,121.821 265.5,123.5C 264.599,122.71 263.932,121.71 263.5,120.5 Z"/></g>
<g><path style="opacity:1" fill="#d2bea9" d="M 245.5,122.5 C 247.587,123.585 248.92,125.251 249.5,127.5C 247.413,126.415 246.08,124.749 245.5,122.5 Z"/></g>
<g><path style="opacity:1" fill="#f9faf9" d="M 87.5,126.5 C 88.8333,127.167 88.8333,127.167 87.5,126.5 Z"/></g>
<g><path style="opacity:1" fill="#f9faf9" d="M 216.5,126.5 C 217.833,127.167 217.833,127.167 216.5,126.5 Z"/></g>
<g><path style="opacity:1" fill="#f9faf9" d="M 270.5,126.5 C 269.833,127.167 269.833,127.167 270.5,126.5 Z"/></g>
<g><path style="opacity:1" fill="#bc8760" d="M 84.5,124.5 C 77.8065,131.019 70.8065,136.352 63.5,140.5C 61.9505,141.441 60.2838,142.107 58.5,142.5C 58.238,141.022 58.5713,139.689 59.5,138.5C 64.1228,137.859 67.7894,135.692 70.5,132C 70.1667,131.667 69.8333,131.333 69.5,131C 70.4162,130.626 71.2496,130.126 72,129.5C 72.7175,130.451 73.5509,130.617 74.5,130C 75.8333,127.667 77.1667,125.333 78.5,123C 80.8893,121.337 82.8893,121.837 84.5,124.5 Z"/></g>
<g><path style="opacity:1" fill="#f9faf9" d="M 223.5,130.5 C 224.833,131.167 224.833,131.167 223.5,130.5 Z"/></g>
<g><path style="opacity:1" fill="#f9faf9" d="M 51.5,132.5 C 50.8333,131.167 50.8333,131.167 51.5,132.5 Z"/></g>
<g><path style="opacity:1" fill="#faf9f5" d="M 258.5,130.5 C 259.5,130.833 260.167,131.5 260.5,132.5C 260.062,133.506 259.396,133.506 258.5,132.5C 258.5,131.833 258.5,131.167 258.5,130.5 Z"/></g>
<g><path style="opacity:1" fill="#f9faf9" d="M 258.5,132.5 C 257.833,133.167 257.833,133.167 258.5,132.5 Z"/></g>
<g><path style="opacity:1" fill="#f9faf9" d="M 223.5,134.5 C 222.833,133.167 222.833,133.167 223.5,134.5 Z"/></g>
<g><path style="opacity:1" fill="#f9faf9" d="M 292.5,133.5 C 293.833,134.167 293.833,134.167 292.5,133.5 Z"/></g>
<g><path style="opacity:1" fill="#f9faf9" d="M 223.5,134.5 C 224.833,135.167 224.833,135.167 223.5,134.5 Z"/></g>
<g><path style="opacity:1" fill="#f9faf9" d="M 275.5,134.5 C 274.833,135.167 274.833,135.167 275.5,134.5 Z"/></g>
<g><path style="opacity:1" fill="#c69b7b" d="M 39.5,127.5 C 38.9913,130.192 37.9913,132.692 36.5,135C 37.5,135.5 38.5,136 39.5,136.5C 39.4895,135.559 39.9895,134.892 41,134.5C 41.7648,134.57 42.2648,134.903 42.5,135.5C 42.1667,136.167 41.8333,136.833 41.5,137.5C 39.7697,138.026 38.4363,139.026 37.5,140.5C 34.1944,142.489 30.8611,144.489 27.5,146.5C 27.3505,145.448 27.5172,144.448 28,143.5C 32.1133,138.243 35.9466,132.91 39.5,127.5 Z"/></g>
<g><path style="opacity:1" fill="#f9faf9" d="M 79.5,135.5 C 80.8333,136.167 80.8333,136.167 79.5,135.5 Z"/></g>
<g><path style="opacity:1" fill="#f9faf9" d="M 290.5,136.5 C 290.897,135.475 291.563,135.308 292.5,136C 291.906,136.464 291.239,136.631 290.5,136.5 Z"/></g>
<g><path style="opacity:1" fill="#f9faf9" d="M 15.5,136.5 C 16.8333,137.167 16.8333,137.167 15.5,136.5 Z"/></g>
<g><path style="opacity:1" fill="#f9faf9" d="M 290.5,136.5 C 289.833,137.167 289.833,137.167 290.5,136.5 Z"/></g>
<g><path style="opacity:1" fill="#f9faf9" d="M 41.5,137.5 C 42.8333,138.167 42.8333,138.167 41.5,137.5 Z"/></g>
<g><path style="opacity:1" fill="#c69878" d="M 30.5,134.5 C 28.9379,138.392 26.6046,141.725 23.5,144.5C 21.7862,140.609 23.1195,138.609 27.5,138.5C 27.2148,136.712 27.5481,135.045 28.5,133.5C 29.1835,133.863 29.8501,134.196 30.5,134.5 Z"/></g>
<g><path style="opacity:1" fill="#c39a79" d="M 268.5,129.5 C 272.506,134.314 276.173,139.481 279.5,145C 279.43,145.765 279.097,146.265 278.5,146.5C 277.71,145.599 276.71,144.932 275.5,144.5C 272.833,142.167 270.167,139.833 267.5,137.5C 269.239,138.434 270.905,138.434 272.5,137.5C 271.965,135.729 271.131,135.396 270,136.5C 269.023,134.26 268.523,131.927 268.5,129.5 Z"/></g>
<g><path style="opacity:1" fill="#f9faf9" d="M 66.5,139.5 C 67.8333,140.167 67.8333,140.167 66.5,139.5 Z"/></g>
<g><path style="opacity:1" fill="#f9faf9" d="M 37.5,140.5 C 38.8333,141.167 38.8333,141.167 37.5,140.5 Z"/></g>
<g><path style="opacity:1" fill="#f9faf9" d="M 63.5,140.5 C 64.8333,141.167 64.8333,141.167 63.5,140.5 Z"/></g>
<g><path style="opacity:1" fill="#f9faf9" d="M 238.5,142.5 C 239.833,143.167 239.833,143.167 238.5,142.5 Z"/></g>
<g><path style="opacity:1" fill="#d3c0a3" d="M 109.5,144.5 C 109.5,144.833 109.5,145.167 109.5,145.5C 99.572,144.9 89.9053,145.567 80.5,147.5C 80.5,146.5 80.5,145.5 80.5,144.5C 90.1667,144.5 99.8333,144.5 109.5,144.5 Z"/></g>
<g><path style="opacity:1" fill="#d5c1a3" d="M 125.5,145.5 C 125.5,145.167 125.5,144.833 125.5,144.5C 150.5,144.5 175.5,144.5 200.5,144.5C 200.5,146.167 200.5,147.833 200.5,149.5C 199.566,148.432 199.232,147.099 199.5,145.5C 174.833,145.5 150.167,145.5 125.5,145.5 Z"/></g>
<g><path style="opacity:1" fill="#f9faf9" d="M 203.5,145.5 C 202.833,144.167 202.833,144.167 203.5,145.5 Z"/></g>
<g><path style="opacity:1" fill="#d7c4a8" d="M 226.5,147.5 C 220.118,145.601 213.451,144.934 206.5,145.5C 206.923,147.781 206.256,149.448 204.5,150.5C 205.341,148.621 205.675,146.621 205.5,144.5C 212.5,144.5 219.5,144.5 226.5,144.5C 226.5,145.5 226.5,146.5 226.5,147.5 Z"/></g>
<g><path style="opacity:1" fill="#f9faf9" d="M 275.5,144.5 C 274.833,145.167 274.833,145.167 275.5,144.5 Z"/></g>
<g><path style="opacity:1" fill="#bb9767" d="M 109.5,145.5 C 109.666,149.846 109.499,154.179 109,158.5C 103.735,161.368 101.402,165.702 102,171.5C 106.707,178.271 111.874,184.604 117.5,190.5C 117.232,192.099 117.566,193.432 118.5,194.5C 119.634,197.37 120.3,200.37 120.5,203.5C 120.294,206.495 120.96,209.162 122.5,211.5C 123.309,213.028 123.976,214.694 124.5,216.5C 123.637,217.94 123.637,219.274 124.5,220.5C 129.677,223.714 135.343,225.547 141.5,226C 151.532,226.713 161.532,226.379 171.5,225C 175.385,224.261 179.052,222.927 182.5,221C 183.711,219.887 183.711,218.72 182.5,217.5C 180.235,215.873 177.901,214.539 175.5,213.5C 175.938,213.565 176.272,213.399 176.5,213C 175.756,211.961 174.756,211.461 173.5,211.5C 161.168,200.726 148.335,189.726 135,178.5C 134.722,179.416 134.222,180.082 133.5,180.5C 133.662,178.473 133.495,176.473 133,174.5C 130.667,172.167 128.333,169.833 126,167.5C 125.5,160.174 125.334,152.841 125.5,145.5C 150.167,145.5 174.833,145.5 199.5,145.5C 199.232,147.099 199.566,148.432 200.5,149.5C 201.708,150.234 203.041,150.567 204.5,150.5C 206.256,149.448 206.923,147.781 206.5,145.5C 213.451,144.934 220.118,145.601 226.5,147.5C 227.723,150.398 229.723,152.731 232.5,154.5C 233.287,156.104 234.62,156.771 236.5,156.5C 236.868,159.533 236.202,162.2 234.5,164.5C 232.556,168.116 233.556,170.116 237.5,170.5C 237.5,173.5 237.5,176.5 237.5,179.5C 235.901,179.232 234.568,179.566 233.5,180.5C 228.767,181.536 226.434,184.202 226.5,188.5C 224.193,190.572 223.859,193.072 225.5,196C 225.836,197.03 226.503,197.53 227.5,197.5C 226.683,199.308 227.35,200.808 229.5,202C 231.909,203.707 234.575,204.54 237.5,204.5C 237.5,207.5 237.5,210.5 237.5,213.5C 233.65,213.701 232.65,215.534 234.5,219C 235.448,219.483 236.448,219.649 237.5,219.5C 237.817,222.572 237.484,225.572 236.5,228.5C 234.22,229.136 232.22,230.136 230.5,231.5C 228.32,233.863 226.653,236.53 225.5,239.5C 219.167,239.5 212.833,239.5 206.5,239.5C 206.975,236.918 206.308,234.918 204.5,233.5C 203.041,233.433 201.708,233.766 200.5,234.5C 199.549,235.919 199.216,237.585 199.5,239.5C 160.167,239.5 120.833,239.5 81.5,239.5C 81.7373,238.209 81.404,237.209 80.5,236.5C 78.701,232.045 75.3676,229.378 70.5,228.5C 69.5159,225.572 69.1826,222.572 69.5,219.5C 73.35,219.299 74.35,217.466 72.5,214C 71.552,213.517 70.552,213.351 69.5,213.5C 69.5,210.5 69.5,207.5 69.5,204.5C 80.147,202.875 83.9803,196.875 81,186.5C 78.5061,182.002 74.6728,179.668 69.5,179.5C 69.5,176.5 69.5,173.5 69.5,170.5C 73.35,170.299 74.35,168.466 72.5,165C 71.552,164.517 70.552,164.351 69.5,164.5C 69.5,161.5 69.5,158.5 69.5,155.5C 74.8488,155.152 78.5155,152.485 80.5,147.5C 89.9053,145.567 99.572,144.9 109.5,145.5 Z M 200.5,158.5 C 205.328,158.385 206.661,160.552 204.5,165C 203.216,165.684 202.049,165.517 201,164.5C 200.505,162.527 200.338,160.527 200.5,158.5 Z M 201.5,173.5 C 205.252,174.306 206.252,176.472 204.5,180C 203.216,180.684 202.049,180.517 201,179.5C 200.322,177.402 200.489,175.402 201.5,173.5 Z M 125.5,176.5 C 126.833,176.5 128.167,176.5 129.5,176.5C 129.5,177.5 129.5,178.5 129.5,179.5C 129.5,179.833 129.5,180.167 129.5,180.5C 127.142,182.529 124.808,184.529 122.5,186.5C 121.167,186.5 119.833,186.5 118.5,186.5C 118.5,185.5 118.5,184.5 118.5,183.5C 120.5,180.833 122.833,178.5 125.5,176.5 Z M 173.5,211.5 C 172.609,212.11 171.609,212.443 170.5,212.5C 157.875,210.127 145.208,210.294 132.5,213C 129.562,213.696 126.896,214.862 124.5,216.5C 123.976,214.694 123.309,213.028 122.5,211.5C 122.435,208.572 121.768,205.905 120.5,203.5C 120.3,200.37 119.634,197.37 118.5,194.5C 118.5,193.5 118.5,192.5 118.5,191.5C 120.099,191.768 121.432,191.434 122.5,190.5C 128.077,189.22 131.744,185.887 133.5,180.5C 134.222,180.082 134.722,179.416 135,178.5C 148.335,189.726 161.168,200.726 173.5,211.5 Z M 205.5,194.5 C 203.833,194.5 202.167,194.5 200.5,194.5C 200.5,192.5 200.5,190.5 200.5,188.5C 204.908,188.062 206.575,190.062 205.5,194.5 Z M 201.5,203.5 C 203.346,203.222 204.68,203.889 205.5,205.5C 204.359,206.425 204.359,207.259 205.5,208C 204.478,210.316 202.978,210.816 201,209.5C 200.322,207.402 200.489,205.402 201.5,203.5 Z M 173.5,211.5 C 174.756,211.461 175.756,211.961 176.5,213C 176.272,213.399 175.938,213.565 175.5,213.5C 175.167,213.5 174.833,213.5 174.5,213.5C 174.167,212.833 173.833,212.167 173.5,211.5 Z M 201.5,218.5 C 205.252,219.306 206.252,221.472 204.5,225C 203.207,225.49 201.873,225.657 200.5,225.5C 200.298,223.05 200.631,220.717 201.5,218.5 Z"/></g>
<g><path style="opacity:1" fill="#64543f" d="M 109.5,145.5 C 109.5,145.167 109.5,144.833 109.5,144.5C 111.167,144.5 112.833,144.5 114.5,144.5C 114.5,148.833 114.5,153.167 114.5,157.5C 113.517,153.702 113.183,149.702 113.5,145.5C 112.167,145.5 110.833,145.5 109.5,145.5 Z"/></g>
<g><path style="opacity:1" fill="#f9faf9" d="M 203.5,145.5 C 204.833,146.167 204.833,146.167 203.5,145.5 Z"/></g>
<g><path style="opacity:1" fill="#f9faf9" d="M 15.5,146.5 C 16.8333,147.167 16.8333,147.167 15.5,146.5 Z"/></g>
<g><path style="opacity:1" fill="#f9faf9" d="M 27.5,146.5 C 26.8333,147.167 26.8333,147.167 27.5,146.5 Z"/></g>
<g><path style="opacity:1" fill="#f9faf9" d="M 278.5,146.5 C 277.833,147.167 277.833,147.167 278.5,146.5 Z"/></g>
<g><path style="opacity:1" fill="#f9faf9" d="M 290.5,146.5 C 291.833,147.167 291.833,147.167 290.5,146.5 Z"/></g>
<g><path style="opacity:1" fill="#f9faf9" d="M 28.5,147.5 C 29.8333,148.167 29.8333,148.167 28.5,147.5 Z"/></g>
<g><path style="opacity:1" fill="#f9faf9" d="M 24.5,148.5 C 25.8333,149.167 25.8333,149.167 24.5,148.5 Z"/></g>
<g><path style="opacity:1" fill="#f9faf9" d="M 257.5,149.5 C 258.833,150.167 258.833,150.167 257.5,149.5 Z"/></g>
<g><path style="opacity:1" fill="#f9faf9" d="M 292.5,149.5 C 293.833,150.167 293.833,150.167 292.5,149.5 Z"/></g>
<g><path style="opacity:1" fill="#f9faf9" d="M 20.5,150.5 C 21.8333,151.167 21.8333,151.167 20.5,150.5 Z"/></g>
<g><path style="opacity:1" fill="#f9faf9" d="M 24.5,150.5 C 25.8333,151.167 25.8333,151.167 24.5,150.5 Z"/></g>
<g><path style="opacity:1" fill="#f1e6db" d="M 29.5,149.5 C 30.5676,150.434 31.901,150.768 33.5,150.5C 31.7816,151.224 29.9483,151.891 28,152.5C 27.2748,150.843 27.7748,149.843 29.5,149.5 Z"/></g>
<g><path style="opacity:1" fill="#e7e0d9" d="M 277.5,149.5 C 279.225,149.843 279.725,150.843 279,152.5C 277.052,151.891 275.218,151.224 273.5,150.5C 275.099,150.768 276.432,150.434 277.5,149.5 Z"/></g>
<g><path style="opacity:1" fill="#f9faf9" d="M 50.5,151.5 C 51.8333,152.167 51.8333,152.167 50.5,151.5 Z"/></g>
<g><path style="opacity:1" fill="#f9faf9" d="M 14.5,153.5 C 13.8333,152.167 13.8333,152.167 14.5,153.5 Z"/></g>
<g><path style="opacity:1" fill="#f9faf9" d="M 29.5,152.5 C 30.8333,153.167 30.8333,153.167 29.5,152.5 Z"/></g>
<g><path style="opacity:1" fill="#f9faf9" d="M 69.5,152.5 C 70.8333,153.167 70.8333,153.167 69.5,152.5 Z"/></g>
<g><path style="opacity:1" fill="#f9faf9" d="M 14.5,153.5 C 15.8333,154.167 15.8333,154.167 14.5,153.5 Z"/></g>
<g><path style="opacity:1" fill="#f9faf9" d="M 288.5,155.5 C 288.369,154.761 288.536,154.094 289,153.5C 289.692,154.437 289.525,155.103 288.5,155.5 Z"/></g>
<g><path style="opacity:1" fill="#f9faf9" d="M 291.5,153.5 C 292.833,154.167 292.833,154.167 291.5,153.5 Z"/></g>
<g><path style="opacity:1" fill="#f9faf9" d="M 35.5,155.5 C 36.8333,156.167 36.8333,156.167 35.5,155.5 Z"/></g>
<g><path style="opacity:1" fill="#b6956c" d="M 114.5,144.5 C 118.167,144.5 121.833,144.5 125.5,144.5C 125.5,144.833 125.5,145.167 125.5,145.5C 123.833,145.5 122.167,145.5 120.5,145.5C 120.666,150.511 120.499,155.511 120,160.5C 118.736,158.393 116.903,157.393 114.5,157.5C 114.5,153.167 114.5,148.833 114.5,144.5 Z"/></g>
<g><path style="opacity:1" fill="#28221c" d="M 109.5,145.5 C 110.833,145.5 112.167,145.5 113.5,145.5C 113.183,149.702 113.517,153.702 114.5,157.5C 116.903,157.393 118.736,158.393 120,160.5C 120.499,155.511 120.666,150.511 120.5,145.5C 122.167,145.5 123.833,145.5 125.5,145.5C 125.334,152.841 125.5,160.174 126,167.5C 128.333,169.833 130.667,172.167 133,174.5C 133.495,176.473 133.662,178.473 133.5,180.5C 132.039,181.686 130.705,181.686 129.5,180.5C 129.5,180.167 129.5,179.833 129.5,179.5C 130.434,178.432 130.768,177.099 130.5,175.5C 128.585,175.216 126.919,175.549 125.5,176.5C 122.833,178.5 120.5,180.833 118.5,183.5C 117.566,184.568 117.232,185.901 117.5,187.5C 119.167,187.5 120.833,187.5 122.5,187.5C 122.5,188.5 122.5,189.5 122.5,190.5C 120.833,190.5 119.167,190.5 117.5,190.5C 111.874,184.604 106.707,178.271 102,171.5C 101.402,165.702 103.735,161.368 109,158.5C 109.499,154.179 109.666,149.846 109.5,145.5 Z"/></g>
<g><path style="opacity:1" fill="#f9faf9" d="M 291.5,156.5 C 292.833,157.167 292.833,157.167 291.5,156.5 Z"/></g>
<g><path style="opacity:1" fill="#f9faf9" d="M 15.5,157.5 C 16.8333,158.167 16.8333,158.167 15.5,157.5 Z"/></g>
<g><path style="opacity:1" fill="#f9faf9" d="M 269.5,157.5 C 270.833,158.167 270.833,158.167 269.5,157.5 Z"/></g>
<g><path style="opacity:1" fill="#dcccb2" d="M 232.5,154.5 C 234.117,155.038 235.784,155.371 237.5,155.5C 237.5,158.5 237.5,161.5 237.5,164.5C 236.5,164.5 235.5,164.5 234.5,164.5C 236.202,162.2 236.868,159.533 236.5,156.5C 234.62,156.771 233.287,156.104 232.5,154.5 Z"/></g>
<g><path style="opacity:1" fill="#f9faf9" d="M 41.5,160.5 C 42.8333,161.167 42.8333,161.167 41.5,160.5 Z"/></g>
<g><path style="opacity:1" fill="#f9faf9" d="M 44.5,161.5 C 45.8333,162.167 45.8333,162.167 44.5,161.5 Z"/></g>
<g><path style="opacity:1" fill="#f9faf9" d="M 236.5,165.5 C 237.833,166.167 237.833,166.167 236.5,165.5 Z"/></g>
<g><path style="opacity:1" fill="#bc865d" d="M 45.5,175.5 C 43.6263,174.37 41.6263,173.37 39.5,172.5C 38.8076,173.025 38.3076,173.692 38,174.5C 37.2647,171.523 37.4313,168.689 38.5,166C 37.5509,165.383 36.7175,165.549 36,166.5C 35.3109,165.643 34.4776,164.977 33.5,164.5C 31.9547,167.612 32.6213,170.112 35.5,172C 34.5939,173.699 34.2606,175.533 34.5,177.5C 31.286,170.086 27.9527,163.086 24.5,156.5C 28.3185,153.609 31.8185,153.943 35,157.5C 39.1536,163.145 42.6536,169.145 45.5,175.5 Z"/></g>
<g><path style="opacity:1" fill="#f9faf9" d="M 13.5,168.5 C 14.8333,169.167 14.8333,169.167 13.5,168.5 Z"/></g>
<g><path style="opacity:1" fill="#f9faf9" d="M 260.5,169.5 C 261.833,170.167 261.833,170.167 260.5,169.5 Z"/></g>
<g><path style="opacity:1" fill="#f9faf9" d="M 46.5,171.5 C 45.8333,170.167 45.8333,170.167 46.5,171.5 Z"/></g>
<g><path style="opacity:1" fill="#f9faf9" d="M 48.5,170.5 C 49.8333,171.167 49.8333,171.167 48.5,170.5 Z"/></g>
<g><path style="opacity:1" fill="#f9faf9" d="M 258.5,170.5 C 259.833,171.167 259.833,171.167 258.5,170.5 Z"/></g>
<g><path style="opacity:1" fill="#f9faf9" d="M 46.5,171.5 C 47.8333,172.167 47.8333,172.167 46.5,171.5 Z"/></g>
<g><path style="opacity:1" fill="#f9faf9" d="M 253.5,171.5 C 254.833,172.167 254.833,172.167 253.5,171.5 Z"/></g>
<g><path style="opacity:1" fill="#f9faf9" d="M 256.5,172.5 C 256.842,171.662 257.508,171.328 258.5,171.5C 258.158,172.338 257.492,172.672 256.5,172.5 Z"/></g>
<g><path style="opacity:1" fill="#f9faf9" d="M 50.5,172.5 C 51.8333,173.167 51.8333,173.167 50.5,172.5 Z"/></g>
<g><path style="opacity:1" fill="#f9faf9" d="M 256.5,172.5 C 256.631,173.239 256.464,173.906 256,174.5C 255.308,173.563 255.475,172.897 256.5,172.5 Z"/></g>
<g><path style="opacity:1" fill="#f9faf9" d="M 50.5,175.5 C 49.8333,174.167 49.8333,174.167 50.5,175.5 Z"/></g>
<g><path style="opacity:1" fill="#b37548" d="M 286.5,157.5 C 287.498,184.662 287.831,211.995 287.5,239.5C 281.167,239.5 274.833,239.5 268.5,239.5C 268.167,239.5 267.833,239.5 267.5,239.5C 267.453,225.202 268.787,210.869 271.5,196.5C 272.913,193.781 273.58,190.781 273.5,187.5C 275.918,176.062 280.251,166.062 286.5,157.5 Z"/></g>
<g><path style="opacity:1" fill="#f9faf9" d="M 31.5,175.5 C 32.8333,176.167 32.8333,176.167 31.5,175.5 Z"/></g>
<g><path style="opacity:1" fill="#f9faf9" d="M 50.5,175.5 C 51.8333,176.167 51.8333,176.167 50.5,175.5 Z"/></g>
<g><path style="opacity:1" fill="#edece7" d="M 125.5,176.5 C 126.919,175.549 128.585,175.216 130.5,175.5C 130.768,177.099 130.434,178.432 129.5,179.5C 129.5,178.5 129.5,177.5 129.5,176.5C 128.167,176.5 126.833,176.5 125.5,176.5 Z"/></g>
<g><path style="opacity:1" fill="#b88056" d="M 271.5,180.5 C 270.596,181.209 270.263,182.209 270.5,183.5C 269.566,184.568 269.232,185.901 269.5,187.5C 268.566,188.568 268.232,189.901 268.5,191.5C 265.947,205.143 264.947,218.809 265.5,232.5C 264.532,234.607 264.198,236.941 264.5,239.5C 258.31,239.823 252.31,239.49 246.5,238.5C 252.167,238.5 257.833,238.5 263.5,238.5C 263.5,232.167 263.5,225.833 263.5,219.5C 262.5,219.5 261.5,219.5 260.5,219.5C 260.48,217.857 261.147,216.524 262.5,215.5C 261.253,213.958 261.253,212.458 262.5,211C 261.833,209.667 260.833,208.667 259.5,208C 260.308,207.692 260.975,207.192 261.5,206.5C 259.833,205.167 258.167,203.833 256.5,202.5C 257.76,201.618 258.926,200.618 260,199.5C 261.044,200.623 261.71,201.956 262,203.5C 264.724,201.192 266.224,198.192 266.5,194.5C 263.558,193.428 261.058,191.761 259,189.5C 255.169,191.32 254.002,194.153 255.5,198C 254.552,198.483 253.552,198.649 252.5,198.5C 252.737,199.791 252.404,200.791 251.5,201.5C 255.576,184.182 263.242,168.682 274.5,155C 277.192,154.57 279.859,154.737 282.5,155.5C 278.543,163.743 274.877,172.076 271.5,180.5 Z"/></g>
<g><path style="opacity:1" fill="#f9faf9" d="M 52.5,179.5 C 53.8333,180.167 53.8333,180.167 52.5,179.5 Z"/></g>
<g><path style="opacity:1" fill="#f9faf9" d="M 233.5,180.5 C 234.833,181.167 234.833,181.167 233.5,180.5 Z"/></g>
<g><path style="opacity:1" fill="#f2e9db" d="M 271.5,180.5 C 271.414,181.496 271.748,182.329 272.5,183C 271.906,183.464 271.239,183.631 270.5,183.5C 270.263,182.209 270.596,181.209 271.5,180.5 Z"/></g>
<g><path style="opacity:1" fill="#f9faf9" d="M 70.5,182.5 C 71.8333,183.167 71.8333,183.167 70.5,182.5 Z"/></g>
<g><path style="opacity:1" fill="#f9faf9" d="M 75.5,182.5 C 76.8333,183.167 76.8333,183.167 75.5,182.5 Z"/></g>
<g><path style="opacity:1" fill="#f9faf9" d="M 15.5,184.5 C 16.525,184.897 16.6917,185.563 16,186.5C 15.5357,185.906 15.369,185.239 15.5,184.5 Z"/></g>
<g><path style="opacity:1" fill="#faf2ea" d="M 36.5,184.5 C 37.404,185.209 37.7373,186.209 37.5,187.5C 36.7326,186.828 36.0659,185.995 35.5,185C 35.7284,184.601 36.0618,184.435 36.5,184.5 Z"/></g>
<g><path style="opacity:1" fill="#f9faf9" d="M 77.5,184.5 C 78.8333,185.167 78.8333,185.167 77.5,184.5 Z"/></g>
<g><path style="opacity:1" fill="#615c57" d="M 129.5,180.5 C 130.705,181.686 132.039,181.686 133.5,180.5C 131.744,185.887 128.077,189.22 122.5,190.5C 122.5,189.5 122.5,188.5 122.5,187.5C 122.5,187.167 122.5,186.833 122.5,186.5C 124.808,184.529 127.142,182.529 129.5,180.5 Z"/></g>
<g><path style="opacity:1" fill="#f9faf9" d="M 228.5,184.5 C 229.833,185.167 229.833,185.167 228.5,184.5 Z"/></g>
<g><path style="opacity:1" fill="#ebebe8" d="M 118.5,183.5 C 118.5,184.5 118.5,185.5 118.5,186.5C 119.833,186.5 121.167,186.5 122.5,186.5C 122.5,186.833 122.5,187.167 122.5,187.5C 120.833,187.5 119.167,187.5 117.5,187.5C 117.232,185.901 117.566,184.568 118.5,183.5 Z"/></g>
<g><path style="opacity:1" fill="#f5ece5" d="M 270.5,183.5 C 271.443,185.001 271.109,186.335 269.5,187.5C 269.232,185.901 269.566,184.568 270.5,183.5 Z"/></g>
<g><path style="opacity:1" fill="#dcc9b4" d="M 32.5,183.5 C 34.1016,187.239 35.1016,191.239 35.5,195.5C 33.5841,191.837 32.5841,187.837 32.5,183.5 Z"/></g>
<g><path style="opacity:1" fill="#e8d7c4" d="M 20.5,157.5 C 19.5021,184.662 19.1688,211.995 19.5,239.5C 25.8333,239.5 32.1667,239.5 38.5,239.5C 32.021,240.491 25.3543,240.824 18.5,240.5C 18.3334,212.165 18.5,183.831 19,155.5C 19.7172,156.044 20.2172,156.711 20.5,157.5 Z"/></g>
<g><path style="opacity:1" fill="#f9faf9" d="M 226.5,188.5 C 227.833,189.167 227.833,189.167 226.5,188.5 Z"/></g>
<g><path style="opacity:1" fill="#f9faf9" d="M 227.5,190.5 C 228.833,191.167 228.833,191.167 227.5,190.5 Z"/></g>
<g><path style="opacity:1" fill="#f5eee8" d="M 269.5,187.5 C 270.443,189.001 270.109,190.335 268.5,191.5C 268.232,189.901 268.566,188.568 269.5,187.5 Z"/></g>
<g><path style="opacity:1" fill="#efece3" d="M 117.5,190.5 C 119.167,190.5 120.833,190.5 122.5,190.5C 121.432,191.434 120.099,191.768 118.5,191.5C 118.5,192.5 118.5,193.5 118.5,194.5C 117.566,193.432 117.232,192.099 117.5,190.5 Z"/></g>
<g><path style="opacity:1" fill="#f9faf9" d="M 77.5,192.5 C 78.8333,193.167 78.8333,193.167 77.5,192.5 Z"/></g>
<g><path style="opacity:1" fill="#eadecc" d="M 273.5,187.5 C 273.58,190.781 272.913,193.781 271.5,196.5C 271.42,193.219 272.087,190.219 273.5,187.5 Z"/></g>
<g><path style="opacity:1" fill="#f8f6ed" d="M 38.5,192.5 C 39.404,193.209 39.7373,194.209 39.5,195.5C 37.5188,194.895 37.1854,193.895 38.5,192.5 Z"/></g>
<g><path style="opacity:1" fill="#b27447" d="M 45.5,175.5 C 48.0684,179.856 50.0684,184.522 51.5,189.5C 51.59,191.696 51.9233,193.863 52.5,196C 52.6842,197.376 53.3509,198.209 54.5,198.5C 54.5,198.833 54.5,199.167 54.5,199.5C 54.8897,202.839 55.3897,206.173 56,209.5C 56.3826,210.056 56.8826,210.389 57.5,210.5C 58.6746,214.042 59.3413,217.709 59.5,221.5C 59.701,227.509 60.0343,233.509 60.5,239.5C 54.8333,239.5 49.1667,239.5 43.5,239.5C 43.8214,233.974 43.4881,228.64 42.5,223.5C 42.5,223.167 42.5,222.833 42.5,222.5C 42.8168,218.298 42.4834,214.298 41.5,210.5C 40.4282,205.595 39.7615,200.595 39.5,195.5C 39.7373,194.209 39.404,193.209 38.5,192.5C 37.6993,190.958 37.366,189.292 37.5,187.5C 37.7373,186.209 37.404,185.209 36.5,184.5C 35.4336,182.299 34.767,179.965 34.5,177.5C 34.2606,175.533 34.5939,173.699 35.5,172C 32.6213,170.112 31.9547,167.612 33.5,164.5C 34.4776,164.977 35.3109,165.643 36,166.5C 36.7175,165.549 37.5509,165.383 38.5,166C 37.4313,168.689 37.2647,171.523 38,174.5C 38.3076,173.692 38.8076,173.025 39.5,172.5C 41.6263,173.37 43.6263,174.37 45.5,175.5 Z"/></g>
<g><path style="opacity:1" fill="#f9faf9" d="M 57.5,194.5 C 58.8333,195.167 58.8333,195.167 57.5,194.5 Z"/></g>
<g><path style="opacity:1" fill="#eadecd" d="M 200.5,194.5 C 202.167,194.5 203.833,194.5 205.5,194.5C 205.209,195.649 204.376,196.316 203,196.5C 201.624,196.316 200.791,195.649 200.5,194.5 Z"/></g>
<g><path style="opacity:1" fill="#b07042" d="M 246.5,238.5 C 246.5,236.167 246.5,233.833 246.5,231.5C 246.5,230.833 246.5,230.167 246.5,229.5C 247.468,227.393 247.802,225.059 247.5,222.5C 247.401,219.763 247.735,217.096 248.5,214.5C 250.416,210.837 251.416,206.837 251.5,202.5C 251.5,202.167 251.5,201.833 251.5,201.5C 252.404,200.791 252.737,199.791 252.5,198.5C 253.552,198.649 254.552,198.483 255.5,198C 254.002,194.153 255.169,191.32 259,189.5C 261.058,191.761 263.558,193.428 266.5,194.5C 266.224,198.192 264.724,201.192 262,203.5C 261.71,201.956 261.044,200.623 260,199.5C 258.926,200.618 257.76,201.618 256.5,202.5C 258.167,203.833 259.833,205.167 261.5,206.5C 260.975,207.192 260.308,207.692 259.5,208C 260.833,208.667 261.833,209.667 262.5,211C 261.253,212.458 261.253,213.958 262.5,215.5C 261.147,216.524 260.48,217.857 260.5,219.5C 261.5,219.5 262.5,219.5 263.5,219.5C 263.5,225.833 263.5,232.167 263.5,238.5C 257.833,238.5 252.167,238.5 246.5,238.5 Z"/></g>
<g><path style="opacity:1" fill="#f9faf9" d="M 227.5,196.5 C 228.833,197.167 228.833,197.167 227.5,196.5 Z"/></g>
<g><path style="opacity:1" fill="#c89f82" d="M 51.5,189.5 C 53.3104,192.145 54.3104,195.145 54.5,198.5C 53.3509,198.209 52.6842,197.376 52.5,196C 51.9233,193.863 51.59,191.696 51.5,189.5 Z"/></g>
<g><path style="opacity:1" fill="#f9faf9" d="M 56.5,200.5 C 57.8333,201.167 57.8333,201.167 56.5,200.5 Z"/></g>
<g><path style="opacity:1" fill="#f9faf9" d="M 72.5,201.5 C 73.8333,202.167 73.8333,202.167 72.5,201.5 Z"/></g>
<g><path style="opacity:1" fill="#f9faf9" d="M 246.5,201.5 C 247.833,202.167 247.833,202.167 246.5,201.5 Z"/></g>
<g><path style="opacity:1" fill="#d7bca5" d="M 35.5,196.5 C 36.7947,200.267 37.4613,204.267 37.5,208.5C 35.8643,204.79 35.1977,200.79 35.5,196.5 Z"/></g>
<g><path style="opacity:1" fill="#dfc9b1" d="M 288.5,155.5 C 288.521,183.625 288.521,211.959 288.5,240.5C 281.646,240.824 274.979,240.491 268.5,239.5C 274.833,239.5 281.167,239.5 287.5,239.5C 287.831,211.995 287.498,184.662 286.5,157.5C 286.833,156.5 287.5,155.833 288.5,155.5 Z"/></g>
<g><path style="opacity:1" fill="#dbc5b3" d="M 251.5,202.5 C 251.416,206.837 250.416,210.837 248.5,214.5C 248.898,210.239 249.898,206.239 251.5,202.5 Z"/></g>
<g><path style="opacity:1" fill="#f9faf9" d="M 267.5,206.5 C 268.833,207.167 268.833,207.167 267.5,206.5 Z"/></g>
<g><path style="opacity:1" fill="#c9a587" d="M 54.5,199.5 C 56.2576,202.854 57.2576,206.521 57.5,210.5C 56.8826,210.389 56.3826,210.056 56,209.5C 55.3897,206.173 54.8897,202.839 54.5,199.5 Z"/></g>
<g><path style="opacity:1" fill="#e8decd" d="M 120.5,203.5 C 121.768,205.905 122.435,208.572 122.5,211.5C 120.96,209.162 120.294,206.495 120.5,203.5 Z"/></g>
<g><path style="opacity:1" fill="#b07245" d="M 20.5,157.5 C 22.3786,157.393 22.7119,157.893 21.5,159C 26.3259,166.196 29.9926,174.362 32.5,183.5C 32.5841,187.837 33.5841,191.837 35.5,195.5C 35.5,195.833 35.5,196.167 35.5,196.5C 35.1977,200.79 35.8643,204.79 37.5,208.5C 38.441,213.07 38.7744,217.737 38.5,222.5C 38.5,228.167 38.5,233.833 38.5,239.5C 32.1667,239.5 25.8333,239.5 19.5,239.5C 19.1688,211.995 19.5021,184.662 20.5,157.5 Z"/></g>
<g><path style="opacity:1" fill="#efefea" d="M 173.5,211.5 C 173.833,212.167 174.167,212.833 174.5,213.5C 172.901,213.768 171.568,213.434 170.5,212.5C 171.609,212.443 172.609,212.11 173.5,211.5 Z"/></g>
<g><path style="opacity:1" fill="#2d2722" d="M 170.5,212.5 C 171.568,213.434 172.901,213.768 174.5,213.5C 174.833,213.5 175.167,213.5 175.5,213.5C 177.901,214.539 180.235,215.873 182.5,217.5C 183.711,218.72 183.711,219.887 182.5,221C 179.052,222.927 175.385,224.261 171.5,225C 161.532,226.379 151.532,226.713 141.5,226C 135.343,225.547 129.677,223.714 124.5,220.5C 123.637,219.274 123.637,217.94 124.5,216.5C 126.896,214.862 129.562,213.696 132.5,213C 145.208,210.294 157.875,210.127 170.5,212.5 Z"/></g>
<g><path style="opacity:1" fill="#f9faf9" d="M 246.5,213.5 C 247.833,214.167 247.833,214.167 246.5,213.5 Z"/></g>
<g><path style="opacity:1" fill="#f9faf9" d="M 69.5,215.5 C 70.8333,216.167 70.8333,216.167 69.5,215.5 Z"/></g>
<g><path style="opacity:1" fill="#f7f2ea" d="M 41.5,210.5 C 42.4834,214.298 42.8168,218.298 42.5,222.5C 42.0574,219.186 41.0574,216.019 39.5,213C 40.756,212.583 41.4226,211.75 41.5,210.5 Z"/></g>
<g><path style="opacity:1" fill="#f9faf9" d="M 38.5,222.5 C 39.224,224.218 39.8906,226.052 40.5,228C 39.5399,231.73 39.2065,235.563 39.5,239.5C 39.1667,239.5 38.8333,239.5 38.5,239.5C 38.5,233.833 38.5,228.167 38.5,222.5 Z"/></g>
<g><path style="opacity:1" fill="#f2e6d6" d="M 247.5,222.5 C 247.802,225.059 247.468,227.393 246.5,229.5C 246.739,227.533 246.406,225.699 245.5,224C 246.044,223.283 246.711,222.783 247.5,222.5 Z"/></g>
<g><path style="opacity:1" fill="#f9faf9" d="M 40.5,231.5 C 41.8333,232.167 41.8333,232.167 40.5,231.5 Z"/></g>
<g><path style="opacity:1" fill="#f9faf9" d="M 71.5,231.5 C 72.8333,232.167 72.8333,232.167 71.5,231.5 Z"/></g>
<g><path style="opacity:1" fill="#f9faf9" d="M 230.5,231.5 C 231.833,232.167 231.833,232.167 230.5,231.5 Z"/></g>
<g><path style="opacity:1" fill="#f9faf9" d="M 13.5,232.5 C 14.8333,233.167 14.8333,233.167 13.5,232.5 Z"/></g>
<g><path style="opacity:1" fill="#f9faf9" d="M 265.5,232.5 C 266.833,233.167 266.833,233.167 265.5,232.5 Z"/></g>
<g><path style="opacity:1" fill="#f9faf9" d="M 289.5,232.5 C 290.833,233.167 290.833,233.167 289.5,232.5 Z"/></g>
<g><path style="opacity:1" fill="#f9faf9" d="M 291.5,232.5 C 292.833,233.167 292.833,233.167 291.5,232.5 Z"/></g>
<g><path style="opacity:1" fill="#f9faf9" d="M 201.5,236.5 C 202.833,237.167 202.833,237.167 201.5,236.5 Z"/></g>
<g><path style="opacity:1" fill="#f9faf9" d="M 291.5,237.5 C 292.833,238.167 292.833,238.167 291.5,237.5 Z"/></g>
<g><path style="opacity:1" fill="#f9faf9" d="M 39.5,239.5 C 40.8333,240.167 40.8333,240.167 39.5,239.5 Z"/></g>
<g><path style="opacity:1" fill="#ece0cc" d="M 59.5,221.5 C 60.224,223.218 60.8906,225.052 61.5,227C 61.2416,231.375 61.2416,235.875 61.5,240.5C 55.1667,240.5 48.8333,240.5 42.5,240.5C 42.5,234.833 42.5,229.167 42.5,223.5C 43.4881,228.64 43.8214,233.974 43.5,239.5C 49.1667,239.5 54.8333,239.5 60.5,239.5C 60.0343,233.509 59.701,227.509 59.5,221.5 Z"/></g>
<g><path style="opacity:1" fill="#f9f8ee" d="M 200.5,234.5 C 200.5,236.5 200.5,238.5 200.5,240.5C 160.499,240.667 120.499,240.5 80.5,240C 79.8333,239.667 79.1667,239.333 78.5,239C 79.756,238.583 80.4226,237.75 80.5,236.5C 81.404,237.209 81.7373,238.209 81.5,239.5C 120.833,239.5 160.167,239.5 199.5,239.5C 199.216,237.585 199.549,235.919 200.5,234.5 Z"/></g>
<g><path style="opacity:1" fill="#f3f0ea" d="M 204.5,233.5 C 206.308,234.918 206.975,236.918 206.5,239.5C 212.833,239.5 219.167,239.5 225.5,239.5C 219.021,240.491 212.354,240.824 205.5,240.5C 205.702,238.05 205.369,235.717 204.5,233.5 Z"/></g>
<g><path style="opacity:1" fill="#f9f7e8" d="M 246.5,231.5 C 246.5,233.833 246.5,236.167 246.5,238.5C 252.31,239.49 258.31,239.823 264.5,239.5C 258.355,240.49 252.022,240.823 245.5,240.5C 245.19,237.287 245.523,234.287 246.5,231.5 Z"/></g>
<g><path style="opacity:1" fill="#f9faf9" d="M 267.5,239.5 C 266.833,240.167 266.833,240.167 267.5,239.5 Z"/></g>
</svg>
